<svg xmlns="http://www.w3.org/2000/svg" id="Layer_1" data-name="Layer 1" 
viewBox="0 0 879 351"
fill="#03FFFF">
    <path d="M403 151v111h-31V156q0-28-14-43t-37-15q-24 0-39 16t-14 45v103h-31V156q0-28-14-43t-37-15q-17 0-29 8V79h1a75 75 0 0 1 34-8q24 0 42 11t27 31a61 61 0 0 1 26-31 77 77 0 0 1 40-11q22 0 39 9t27 27q10 18 10 44Zm166-68a88 88 0 0 0-46-12q-24 0-42 11t-28 27V75h-31v276h31V227q10 16 28 27t42 11a85 85 0 0 0 78-47q11-22 11-50 0-29-11-51a84 84 0 0 0-32-34Zm3 122a60 60 0 0 1-23 24 63 63 0 0 1-32 9 62 62 0 0 1-32-9 61 61 0 0 1-23-24q-9-16-9-37t9-37a61 61 0 0 1 23-24 62 62 0 0 1 32-9 64 64 0 0 1 32 9 59 59 0 0 1 23 24q8 15 8 36 0 22-8 38Zm55-132h31v187h-31zm16-73a21 21 0 1 0 0 42 20 20 0 0 0 14-6 22 22 0 0 0 0-30 20 20 0 0 0-14-6Zm188 75h-33l-42 69-45-69h-35l61 94-61 93h33l42-70 45 70h35l-61-95 61-92zm16-66h31v253h-31zM114 71h28v28h-28z"/>
    <path d="M157 108v-2m0-27v-1" class="cls-1"/>
    <path d="M114 233h28v28h-28zm0-121h28v28h-28zm0 40h28v28h-28zm0 41h28v28h-28z"/>
    <path d="m102 193-69 69" class="cls-1"/>
    <path d="M59 213h28v28H59zm15-61h28v28H74zM0 174h28v28H0z"/>
  </svg>